<?xml version="1.0" standalone="no"?>
<!DOCTYPE svg PUBLIC "-//W3C//DTD SVG 1.1//EN" "http://www.w3.org/Graphics/SVG/1.1/DTD/svg11.dtd" >
<svg>
<metadata>
Created by FontForge 20110222 at Mon Mar  7 03:47:14 2011
 By www-data
[C]2000 Tepid Monkey Fonts-www.fontframe.com/tepidmonkey
</metadata>
<defs>
<font id="AccidentalPresidency" horiz-adv-x="392" >
  <font-face 
    font-family="Accidental Presidency"
    font-weight="400"
    font-stretch="normal"
    units-per-em="1000"
    panose-1="2 0 5 3 0 0 0 0 0 0"
    ascent="800"
    descent="-200"
    x-height="472"
    cap-height="650"
    bbox="-137 -200 814 932"
    underline-thickness="20"
    underline-position="-143"
    unicode-range="U+0020-2122"
  />
    <missing-glyph />
    <glyph glyph-name="space" unicode=" " horiz-adv-x="192" 
 />
    <glyph glyph-name="exclam" unicode="!" horiz-adv-x="173" 
d="M138 198h-104v452l104 -1v-451zM139 0h-104l-1 109h104z" />
    <glyph glyph-name="quotedbl" unicode="&#x22;" horiz-adv-x="318" 
d="M281 378h-94l-1 272l94 -1zM131 378h-94l-1 272l94 -1z" />
    <glyph glyph-name="numbersign" unicode="#" horiz-adv-x="708" 
d="M692 495l-1 -94h-155l-46 -148h140l-1 -94h-169l-49 -159h-94l49 159l-156 -1l-49 -158h-94l49 158h-106v94h135l46 148h-119v94h149l48 156l94 -1l-48 -155l156 1l48 155l94 -1l-48 -154h127zM442 401l-157 -1l-46 -148l156 1z" />
    <glyph glyph-name="dollar" unicode="$" horiz-adv-x="377" 
d="M353 449h-100c0 51 -10 82 -31 95v-174c74 -14 130 -76 130 -146v-62c0 -75 -54 -138 -129 -149v-64h-55v63c-81 4 -142 69 -142 150v43h100c0 -55 13 -88 42 -100v177c-80 10 -141 75 -141 148v62c0 80 61 145 140 150v77l55 -1v-77c74 -9 131 -74 131 -149v-43z
M167 378v173c-27 -6 -40 -34 -40 -84c0 -48 13 -78 40 -89zM252 187c0 40 -10 68 -29 83v-163c19 10 29 37 29 80z" />
    <glyph glyph-name="percent" unicode="%" horiz-adv-x="577" 
d="M247 428c0 -65 -45 -104 -119 -104c-58 0 -103 46 -103 104v120c0 72 53 104 120 104c55 0 102 -46 102 -104v-120zM173 446v87c0 34 -13 51 -38 51c-23 0 -35 -17 -35 -51v-87c0 -34 13 -51 38 -51c23 0 35 17 35 51zM499 649l-346 -649h-84l347 650zM556 104
c0 -65 -45 -104 -120 -104c-56 0 -102 47 -102 104v121c0 64 46 104 119 104c56 0 103 -48 103 -104v-121zM481 122v87c0 34 -13 51 -38 51c-23 0 -35 -17 -35 -51v-87c0 -34 13 -51 38 -51c23 0 35 17 35 51z" />
    <glyph glyph-name="ampersand" unicode="&#x26;" horiz-adv-x="440" 
d="M421 368l-1 -78h-70v-149c0 -83 -67 -150 -150 -150c-73 0 -97 9 -132 44c-29 29 -44 65 -44 106v82c0 37 28 82 67 106c-35 15 -66 65 -66 105v52c0 83 67 150 150 150c73 0 97 -9 132 -44c29 -29 44 -65 44 -106v-53h-100c0 87 -15 114 -65 114c-41 0 -61 -28 -61 -84
c0 -90 22 -94 133 -95h163zM249 289c-115 0 -125 -10 -125 -123c0 -63 17 -86 61 -86c48 0 64 26 64 98v111z" />
    <glyph glyph-name="quotesingle" unicode="'" horiz-adv-x="168" 
d="M131 378h-94l-1 272l94 -1z" />
    <glyph glyph-name="parenleft" unicode="(" horiz-adv-x="207" 
d="M190 -154c-87 0 -166 73 -166 154v512c0 82 74 150 160 150l1 -89c-41 0 -61 -27 -61 -84v-462c0 -57 22 -84 65 -84z" />
    <glyph glyph-name="parenright" unicode=")" horiz-adv-x="228" 
d="M198 0c0 -81 -79 -154 -166 -154l1 97c43 0 65 27 65 84v462c0 57 -20 84 -61 84l1 89c86 0 160 -68 160 -150v-512z" />
    <glyph glyph-name="asterisk" unicode="*" horiz-adv-x="388" 
d="M361 571l-95 -80l93 -78l-59 -71l-61 51v-71h-92v70l-57 -48l-59 70l91 77l-93 78l60 70l58 -49v85h92v-86l63 52z" />
    <glyph glyph-name="plus" unicode="+" horiz-adv-x="431" 
d="M410 213h-151v-146h-92v146h-150v92h150v155h92v-155h151v-92z" />
    <glyph glyph-name="comma" unicode="," horiz-adv-x="213" 
d="M180 110l-80 -260h-74l40 261z" />
    <glyph glyph-name="hyphen" unicode="-" horiz-adv-x="212" 
d="M182 213h-153v92h153v-92z" />
    <glyph glyph-name="period" unicode="." horiz-adv-x="188" 
d="M147 0h-104v111l104 -1v-110z" />
    <glyph glyph-name="slash" unicode="/" horiz-adv-x="340" 
d="M325 649l-224 -717h-94l224 718z" />
    <glyph glyph-name="zero" unicode="0" horiz-adv-x="390" 
d="M356 140c0 -82 -68 -150 -150 -150c-73 0 -97 9 -132 44c-29 29 -44 65 -44 106v342c0 83 67 150 150 150c68 0 96 -9 131 -44c30 -29 45 -65 45 -106v-342zM256 167v292c0 62 -15 84 -55 84c-47 0 -71 -28 -71 -84v-292c0 -56 22 -84 65 -84c41 0 61 28 61 84z" />
    <glyph glyph-name="one" unicode="1" horiz-adv-x="288" 
d="M251 0h-104v505l-102 -101v122l101 94l104 1z" />
    <glyph glyph-name="two" unicode="2" horiz-adv-x="362" 
d="M345 481c0 -34 -11 -68 -32 -103l-184 -295h204l1 -83h-315v83l205 327c17 26 25 50 25 71c0 34 -25 62 -56 62c-44 0 -66 -35 -66 -105v-59h-99v103c0 83 67 150 150 150c65 0 90 -8 125 -47c28 -31 42 -66 42 -104z" />
    <glyph glyph-name="three" unicode="3" horiz-adv-x="386" 
d="M352 141c0 -83 -67 -150 -150 -150c-68 0 -96 9 -132 44c-29 29 -44 65 -44 106v53h100c0 -84 17 -114 65 -114c45 0 62 23 62 86c0 104 -9 113 -105 113l-1 99c90 0 104 10 104 85c0 56 -20 84 -61 84c-48 0 -65 -30 -65 -114h-100v53c0 83 67 150 150 150
c73 0 97 -9 132 -44c29 -29 44 -65 44 -106v-52c0 -41 -32 -92 -65 -105c37 -23 66 -69 66 -106v-82z" />
    <glyph glyph-name="four" unicode="4" horiz-adv-x="398" 
d="M379 243l-1 -84l-43 1v-160h-95l1 160h-220l-1 83l226 379h110l-223 -379h108v107l94 -1v-106h44z" />
    <glyph glyph-name="five" unicode="5" horiz-adv-x="366" 
d="M347 140c0 -83 -67 -150 -150 -150c-73 0 -97 9 -132 44c-29 29 -44 65 -44 106v54h100c0 -85 10 -111 61 -111c52 0 66 32 66 131c0 59 -21 89 -62 89h-161v316h317v-85h-226v-146h70c91 0 161 -63 161 -146v-102z" />
    <glyph glyph-name="six" unicode="6" horiz-adv-x="385" 
d="M354 450h-100c0 62 -20 93 -65 93c-44 0 -61 -24 -61 -84l1 -75c12 12 31 18 57 18c99 0 166 -60 166 -150v-112c0 -83 -67 -150 -150 -150c-68 0 -96 9 -132 44c-29 29 -44 65 -44 106l2 342c1 83 68 150 150 150c73 0 97 -9 132 -44c42 -42 44 -76 44 -138zM252 167v62
c0 56 -22 84 -65 84c-45 0 -58 -19 -58 -62h-2l-1 -84c0 -56 22 -84 65 -84c41 0 61 28 61 84z" />
    <glyph glyph-name="seven" unicode="7" horiz-adv-x="349" 
d="M330 537l-201 -537h-113l203 527h-194l-1 93h305z" />
    <glyph glyph-name="eight" unicode="8" horiz-adv-x="390" 
d="M356 438c0 -45 -21 -79 -62 -104c35 -18 60 -61 60 -102v-92c0 -83 -67 -150 -150 -150c-73 0 -97 9 -132 44c-29 29 -44 65 -44 106v92c0 35 30 85 62 104c-40 27 -60 79 -60 154c0 83 67 150 150 150c73 0 97 -9 132 -44c29 -29 44 -65 44 -106v-52zM256 467
c0 56 -22 84 -65 84c-44 0 -61 -23 -61 -86c0 -66 16 -83 70 -83c39 0 56 48 56 85zM254 167v42c0 53 -24 80 -72 80c-27 0 -54 -42 -54 -80v-42c0 -56 22 -84 65 -84c41 0 61 28 61 84z" />
    <glyph glyph-name="nine" unicode="9" horiz-adv-x="390" 
d="M356 488l-2 -342c-1 -84 -68 -150 -150 -150c-73 0 -97 9 -132 44c-42 42 -44 76 -44 138h100c0 -62 21 -93 65 -93s61 24 61 84v75c-13 -12 -32 -18 -58 -18c-100 0 -166 60 -166 150v112c0 83 67 150 150 150c73 0 97 -9 132 -44c29 -29 44 -65 44 -106zM256 466
c0 53 -22 79 -65 79c-41 0 -61 -28 -61 -84v-62c0 -56 22 -84 65 -84c51 0 61 25 61 151z" />
    <glyph glyph-name="colon" unicode=":" horiz-adv-x="173" 
d="M139 370h-104v111l104 -1v-110zM139 0h-104v111l104 -1v-110z" />
    <glyph glyph-name="semicolon" unicode=";" horiz-adv-x="188" 
d="M172 370h-104v111l104 -1v-110zM172 110l-80 -260h-74l40 261z" />
    <glyph glyph-name="less" unicode="&#x3c;" horiz-adv-x="385" 
d="M351 28l-320 155l1 107l319 151v-104l-220 -101l220 -104v-104z" />
    <glyph glyph-name="equal" unicode="=" horiz-adv-x="428" 
d="M412 303h-393v92h393v-92zM412 113h-393v92h393v-92z" />
    <glyph glyph-name="greater" unicode="&#x3e;" horiz-adv-x="361" 
d="M340 183l-320 -155v104l220 104l-220 101v104l319 -151z" />
    <glyph glyph-name="question" unicode="?" horiz-adv-x="371" 
d="M344 334c0 -65 -76 -134 -148 -134h-54v100c100 0 100 2 102 182c0 61 -17 84 -61 84c-49 0 -65 -28 -65 -114h-100v53c0 83 67 150 150 150c73 0 97 -9 132 -44c29 -29 44 -65 44 -106v-171zM239 0h-104v109h104v-109z" />
    <glyph glyph-name="at" unicode="@" horiz-adv-x="592" 
d="M575 281c0 -113 -69 -206 -158 -206c-47 0 -76 26 -76 66c-12 -9 -29 -14 -50 -14c-54 0 -105 43 -105 91c0 59 49 105 108 105c18 0 34 -2 47 -6c0 39 -8 58 -36 58c-19 0 -31 -12 -36 -36h-72c0 66 44 105 117 105c53 0 91 -42 91 -100v-205c0 -14 18 -23 20 -23
c53 0 102 82 102 165c0 129 -101 230 -230 230c-127 0 -229 -102 -229 -230c0 -131 101 -230 234 -230v-47c-160 0 -282 121 -282 277c0 155 122 277 277 277s278 -121 278 -277zM341 227c0 20 -18 37 -39 37s-45 -20 -45 -40c0 -17 21 -32 45 -32c21 0 39 16 39 35z" />
    <glyph glyph-name="A" unicode="A" horiz-adv-x="379" 
d="M354 0h-104l-24 148h-76l-25 -148h-104l115 650l107 -1zM210 252l-21 158l-21 -158h42z" />
    <glyph glyph-name="B" unicode="B" horiz-adv-x="383" 
d="M355 140c0 -90 -55 -140 -131 -140h-196v652h177c83 0 150 -67 150 -150v-82c0 -37 -28 -90 -55 -102c30 -14 55 -58 55 -96v-82zM255 447c0 117 0 117 -126 117v-202l45 -1c65 0 81 17 81 86zM255 167v39c0 49 -12 74 -35 74h-91v-196h65c44 0 61 22 61 83z" />
    <glyph glyph-name="C" unicode="C" horiz-adv-x="371" 
d="M350 140c0 -83 -67 -150 -150 -150c-73 0 -97 9 -132 44c-29 29 -44 65 -44 106v372c0 83 67 150 150 150c73 0 97 -9 132 -44c29 -29 44 -65 44 -106v-103h-99v60c0 69 -22 104 -66 104c-41 0 -61 -28 -61 -84v-322c0 -56 22 -84 65 -84c41 0 61 28 61 84v87h100v-114z
" />
    <glyph glyph-name="D" unicode="D" horiz-adv-x="384" 
d="M355 140c0 -85 -51 -140 -131 -140h-196v652h177c83 0 150 -67 150 -150v-362zM255 167v312c0 81 -9 85 -126 85v-480h65c44 0 61 22 61 83z" />
    <glyph glyph-name="E" unicode="E" horiz-adv-x="343" 
d="M325 93l-1 -93h-303l-1 649l304 1l-1 -93h-197l-1 -176l199 1l-1 -93h-199l1 -195z" />
    <glyph glyph-name="F" unicode="F" horiz-adv-x="333" 
d="M323 382l-1 -93h-199v-289h-103l-1 649l304 1l-1 -93h-197l-1 -176z" />
    <glyph glyph-name="G" unicode="G" horiz-adv-x="372" 
d="M352 276l-1 -136c-1 -84 -68 -150 -150 -150c-73 0 -97 9 -132 44c-29 29 -44 65 -44 106v372c0 83 67 150 150 150c73 0 97 -9 132 -44c29 -29 44 -65 44 -106v-103h-100c0 134 -10 164 -65 164c-41 0 -61 -28 -61 -84v-322c0 -56 22 -84 65 -84c48 0 61 24 61 98h-69
v94z" />
    <glyph glyph-name="H" unicode="H" horiz-adv-x="375" 
d="M338 0h-106v280h-96l1 -280h-106l1 649h104v-277l96 1l1 276h104z" />
    <glyph glyph-name="I" unicode="I" horiz-adv-x="177" 
d="M140 0h-104l-1 650l104 -1z" />
    <glyph glyph-name="J" unicode="J" 
d="M356 140c0 -83 -67 -150 -150 -150c-73 0 -97 9 -132 44c-29 29 -44 65 -44 106v114h100v-87c0 -56 20 -84 61 -84c43 0 65 28 65 84v477h100v-504z" />
    <glyph glyph-name="K" unicode="K" horiz-adv-x="377" 
d="M361 0h-114l-128 190v-190h-104v649h104v-188l127 188h114l-228 -323z" />
    <glyph glyph-name="L" unicode="L" horiz-adv-x="320" 
d="M319 93l-1 -93h-303l1 649h102l1 -555z" />
    <glyph glyph-name="M" unicode="M" horiz-adv-x="559" 
d="M521 0h-104v331l-90 -331h-104l-82 338v-338h-104v649h111l133 -461l126 461h114v-649z" />
    <glyph glyph-name="N" unicode="N" horiz-adv-x="377" 
d="M340 0h-106l-106 354l1 -354h-96l-3 649h104l110 -366l1 366h94z" />
    <glyph glyph-name="O" unicode="O" horiz-adv-x="384" 
d="M356 140c0 -82 -68 -150 -150 -150c-73 0 -97 9 -132 44c-29 29 -44 65 -44 106v372c0 83 67 150 150 150c68 0 96 -9 131 -44c30 -29 45 -65 45 -106v-372zM256 167v322c0 62 -15 84 -55 84c-47 0 -71 -28 -71 -84v-322c0 -56 22 -84 65 -84c41 0 61 28 61 84z" />
    <glyph glyph-name="P" unicode="P" horiz-adv-x="378" 
d="M350 340c0 -85 -51 -140 -131 -140h-92v-200h-104v662h177c83 0 150 -67 150 -150v-172zM250 367v122c0 69 -14 85 -78 85h-46l1 -290h62c44 0 61 22 61 83z" />
    <glyph glyph-name="Q" unicode="Q" horiz-adv-x="418" 
d="M398 53l-73 -74l-42 40c-26 -19 -64 -29 -114 -29c-83 0 -150 67 -150 150v372c0 83 67 150 150 150c73 0 97 -9 132 -44c29 -29 44 -65 44 -106v-372c0 -11 -1 -22 -3 -33zM245 203v292c0 52 -18 78 -55 78c-47 0 -71 -28 -71 -84v-322c0 -56 22 -84 65 -84
c12 0 22 2 30 5l-68 67l74 73z" />
    <glyph glyph-name="R" unicode="R" 
d="M359 0h-100v159c0 69 -28 84 -131 84l1 -243h-104v651c104 1 163 1 177 1c83 0 150 -67 150 -150v-112c0 -43 -30 -95 -63 -109c39 -18 70 -62 70 -99v-182zM252 417v62c0 69 -15 85 -79 85h-45v-230h63c43 0 61 24 61 83z" />
    <glyph glyph-name="S" unicode="S" horiz-adv-x="373" 
d="M352 469h-100c0 76 -17 104 -65 104c-44 0 -61 -23 -61 -86c0 -90 17 -124 65 -124c83 0 160 -65 160 -149v-82c0 -83 -67 -150 -150 -150c-73 0 -97 9 -132 44c-29 29 -44 65 -44 106v43h100c0 -69 21 -104 65 -104c45 0 61 24 61 90c0 73 -21 110 -64 110
c-88 0 -161 68 -161 149v92c0 83 67 150 150 150c73 0 97 -9 132 -44c29 -29 44 -65 44 -106v-43z" />
    <glyph glyph-name="T" unicode="T" horiz-adv-x="346" 
d="M328 567h-102l1 -567h-104l-1 567h-99l-1 83h305z" />
    <glyph glyph-name="U" unicode="U" 
d="M356 140c0 -83 -67 -150 -150 -150c-68 0 -96 9 -132 44c-29 29 -44 65 -44 106l-1 516h101v-489c0 -56 22 -84 65 -84c41 0 61 28 61 84v489h99z" />
    <glyph glyph-name="V" unicode="V" horiz-adv-x="369" 
d="M352 649l-115 -650l-107 1l-111 649h104l61 -440l64 440h104z" />
    <glyph glyph-name="W" unicode="W" horiz-adv-x="599" 
d="M583 649l-115 -650l-107 1l-61 356l-63 -357l-107 1l-111 649h104l61 -440l64 440h106l61 -440l64 440h104z" />
    <glyph glyph-name="X" unicode="X" horiz-adv-x="365" 
d="M349 649l-112 -330l110 -320l-107 1l-55 163l-55 -163l-108 -1l110 320l-111 330h104l60 -176l60 176h104z" />
    <glyph glyph-name="Y" unicode="Y" horiz-adv-x="364" 
d="M354 649l-118 -455c-2 -7 -3 -24 -3 -51c0 -36 1 -72 3 -143h-104l-1 192l-110 457h104l61 -290l64 290h104z" />
    <glyph glyph-name="Z" unicode="Z" horiz-adv-x="349" 
d="M326 0h-305l-1 83l204 484h-203l-1 83h305l1 -83l-203 -484h202z" />
    <glyph glyph-name="bracketleft" unicode="[" horiz-adv-x="255" 
d="M239 -149l-219 -1l-1 800l220 -1l-1 -94l-124 -1v-610l124 -1z" />
    <glyph glyph-name="backslash" unicode="\" horiz-adv-x="307" 
d="M316 -68h-94l-223 717l93 1z" />
    <glyph glyph-name="bracketright" unicode="]" horiz-adv-x="291" 
d="M248 -150l-219 1l1 92l124 1l1 610l-125 1l-1 94l220 1z" />
    <glyph glyph-name="asciicircum" unicode="^" horiz-adv-x="452" 
d="M430 329h-104l-101 220l-104 -220h-104l155 320l107 -1z" />
    <glyph glyph-name="underscore" unicode="_" horiz-adv-x="566" 
d="M523 -80h-503v82h503v-82z" />
    <glyph glyph-name="grave" unicode="`" horiz-adv-x="108" 
d="M116 707h-84l-169 132l124 1z" />
    <glyph glyph-name="a" unicode="a" horiz-adv-x="395" 
d="M365 0h-100v34c-1 -29 -30 -44 -86 -44c-82 0 -157 64 -157 135c0 86 70 157 162 157c33 0 60 -5 81 -14c0 85 -15 111 -65 111c-35 0 -47 -12 -62 -57h-99c0 83 67 150 150 150c73 0 97 -9 132 -44c29 -29 44 -65 44 -106v-322zM265 139c0 34 -34 65 -70 65
c-37 0 -78 -36 -78 -69c0 -31 37 -59 78 -59c38 0 70 29 70 63z" />
    <glyph glyph-name="b" unicode="b" horiz-adv-x="378" 
d="M354 140c0 -90 -67 -150 -166 -150c-19 0 -53 17 -66 39v-29h-96l-1 648l104 1l-1 -205c15 19 40 28 76 28c83 0 150 -67 150 -150v-182zM254 167v132c0 56 -22 84 -65 84c-39 0 -59 -19 -59 -57v-184c0 -33 28 -59 63 -59c41 0 61 28 61 84z" />
    <glyph glyph-name="c" unicode="c" horiz-adv-x="364" 
d="M348 140c0 -83 -67 -150 -150 -150c-73 0 -97 9 -132 44c-29 29 -44 65 -44 106v182c0 83 67 150 150 150c73 0 97 -9 132 -44c29 -29 44 -65 44 -106v-53h-100c0 86 -16 114 -65 114c-41 0 -61 -28 -61 -84v-132c0 -56 22 -84 65 -84c51 0 61 25 61 111h100v-54z" />
    <glyph glyph-name="d" unicode="d" 
d="M359 650l-1 -650h-96v29c-13 -26 -41 -39 -82 -39c-83 0 -150 67 -150 150v182c0 93 64 150 176 150c19 0 35 -9 50 -28l-1 205zM255 326c0 38 -20 57 -60 57c-43 0 -65 -28 -65 -84v-132c0 -56 20 -84 61 -84c35 0 63 26 63 59z" />
    <glyph glyph-name="e" unicode="e" horiz-adv-x="375" 
d="M349 140c0 -83 -67 -150 -150 -150c-73 0 -97 9 -132 44c-29 29 -44 65 -44 106v182c0 83 67 150 150 150c73 0 97 -9 132 -44c29 -29 44 -65 44 -106v-138h-226c0 -78 15 -102 90 -102c18 0 30 19 37 58h99zM249 267c0 87 -12 116 -65 116c-48 0 -61 -26 -61 -115z" />
    <glyph glyph-name="f" unicode="f" horiz-adv-x="274" 
d="M247 369h-73v-369h-98l-1 368h-50l1 89h49v55c0 89 91 152 172 152l-1 -98c-52 0 -72 -30 -72 -109h73v-88z" />
    <glyph glyph-name="g" unicode="g" horiz-adv-x="397" 
d="M364 -36c0 -80 -84 -152 -172 -152c-85 0 -164 85 -164 171l104 2c0 -55 22 -82 67 -82c43 0 65 28 65 84c0 7 -1 18 -4 35c-15 -19 -40 -28 -76 -28c-83 0 -150 67 -150 150v182c0 90 66 150 166 150c19 0 56 -22 66 -39v29l97 -1zM195 383c-41 0 -61 -28 -61 -84v-132
c0 -56 22 -84 65 -84c53 0 61 31 61 141c0 137 -7 159 -65 159z" />
    <glyph glyph-name="h" unicode="h" horiz-adv-x="380" 
d="M355 322l-1 -322h-98l-1 299c0 56 -22 84 -65 84c-40 0 -60 -19 -60 -57l2 -326h-105l-1 650l104 -1l-1 -205c15 19 43 28 86 28c79 0 140 -64 140 -150z" />
    <glyph glyph-name="i" unicode="i" horiz-adv-x="169" 
d="M137 539h-104l-1 111l104 -1zM137 0h-104v480h104v-480z" />
    <glyph glyph-name="j" unicode="j" horiz-adv-x="235" 
d="M202 539h-104l-1 111l104 -1zM203 -39c0 -79 -81 -152 -172 -152l1 98c47 0 71 25 71 77l1 489h98z" />
    <glyph glyph-name="k" unicode="k" horiz-adv-x="360" 
d="M347 0h-128l-95 140l1 -140h-105l-1 650l104 -1l1 -293l95 121h128l-188 -223z" />
    <glyph glyph-name="l" unicode="l" horiz-adv-x="173" 
d="M141 649l-1 -649h-104l1 650z" />
    <glyph glyph-name="m" unicode="m" horiz-adv-x="612" 
d="M583 332l-1 -332h-98l-1 309c0 56 -22 84 -65 84c-36 0 -65 -30 -65 -66l-1 -327h-99l-1 327c0 38 -27 66 -64 66c-40 0 -59 -19 -59 -57l1 -336h-105l-1 480l104 -1l-1 -25c15 19 44 28 86 28c31 0 84 -31 98 -60c24 31 77 60 111 60c86 0 161 -67 161 -150z" />
    <glyph glyph-name="n" unicode="n" horiz-adv-x="385" 
d="M355 332l-1 -332h-98l-1 309c0 56 -22 84 -65 84c-40 0 -59 -19 -59 -57l1 -336h-105l-1 480l104 -1l-1 -25c15 19 44 28 86 28c81 0 140 -64 140 -150z" />
    <glyph glyph-name="o" unicode="o" horiz-adv-x="373" 
d="M350 140c0 -83 -67 -150 -150 -150c-73 0 -97 9 -132 44c-29 29 -44 65 -44 106v182c0 83 67 150 150 150c73 0 97 -9 132 -44c29 -29 44 -65 44 -106v-182zM250 167v132c0 56 -22 84 -65 84c-41 0 -61 -28 -61 -84v-132c0 -56 22 -84 65 -84c41 0 61 28 61 84z" />
    <glyph glyph-name="p" unicode="p" horiz-adv-x="386" 
d="M357 144c0 -93 -64 -150 -176 -150c-19 0 -35 9 -50 28l1 -205l-104 -1v649l97 1v-29c13 26 41 39 82 39c83 0 150 -67 150 -150v-182zM257 167v132c0 56 -20 84 -61 84c-60 0 -67 -29 -64 -166v-86c7 -32 27 -48 60 -48c43 0 65 28 65 84z" />
    <glyph glyph-name="q" unicode="q" horiz-adv-x="393" 
d="M359 -184l-104 1l1 205c-14 -19 -39 -28 -76 -28c-83 0 -150 67 -150 150v182c0 91 68 150 166 150c20 0 56 -21 66 -39v29l97 -1v-649zM191 383c-41 0 -61 -28 -61 -84v-132c0 -56 22 -84 65 -84c42 0 63 30 63 91c0 191 -10 209 -67 209z" />
    <glyph glyph-name="r" unicode="r" horiz-adv-x="307" 
d="M310 425l-82 -66c-10 23 -29 34 -56 34c-39 0 -59 -19 -59 -57l1 -336h-105l-1 480l104 -1l-1 -25c15 19 44 28 86 28c48 0 86 -19 113 -57z" />
    <glyph glyph-name="s" unicode="s" horiz-adv-x="365" 
d="M349 137c0 -83 -67 -150 -150 -150c-64 0 -89 6 -125 37c-28 25 -45 56 -50 93h105c9 -27 29 -41 59 -41c33 0 61 25 61 56c0 36 -25 54 -75 54c-90 0 -153 56 -153 136c0 83 67 150 150 150c64 0 89 -6 125 -38c29 -25 45 -56 50 -93h-105c-9 28 -28 42 -59 42
c-34 0 -61 -24 -61 -56c0 -36 25 -54 75 -54c90 0 153 -56 153 -136z" />
    <glyph glyph-name="t" unicode="t" horiz-adv-x="279" 
d="M246 -14c-115 0 -172 34 -172 102v285h-49l-1 89h51l-2 88h100l1 -89h72v-88h-72v-262c0 -36 17 -37 71 -37z" />
    <glyph glyph-name="u" unicode="u" 
d="M358 -1l-104 1l1 25c-15 -19 -44 -28 -86 -28c-81 0 -140 64 -140 150l1 332h98l1 -309c0 -56 22 -84 65 -84c39 0 59 19 59 57l-1 336h105z" />
    <glyph glyph-name="v" unicode="v" horiz-adv-x="375" 
d="M355 479l-115 -480l-107 1l-111 479h104l61 -340l64 340h104z" />
    <glyph glyph-name="w" unicode="w" horiz-adv-x="604" 
d="M583 479l-115 -480l-107 1l-60 263l-64 -264l-107 1l-111 479h104l61 -320l64 320h104l63 -320l64 320h104z" />
    <glyph glyph-name="x" unicode="x" horiz-adv-x="381" 
d="M360 479l-103 -250l99 -229h-104l-61 170l-64 -170h-104l102 230l-98 249h104l61 -180l64 180h104z" />
    <glyph glyph-name="y" unicode="y" horiz-adv-x="375" 
d="M355 479l-158 -679l-87 1l41 199l-129 479h104l70 -324l55 324h104z" />
    <glyph glyph-name="z" unicode="z" horiz-adv-x="370" 
d="M337 0h-305l-1 83l194 314h-193l-1 83h305l1 -83l-193 -314h192z" />
    <glyph glyph-name="braceleft" unicode="{" horiz-adv-x="314" 
d="M296 -154c-87 0 -166 73 -166 154v165l-114 116l114 113v118c0 82 74 150 160 150l1 -89c-41 0 -61 -27 -61 -84v-95l-112 -113l112 -117v-137c0 -57 22 -84 65 -84z" />
    <glyph glyph-name="bar" unicode="|" horiz-adv-x="166" 
d="M124 -160h-84l-1 810l84 -1z" />
    <glyph glyph-name="braceright" unicode="}" horiz-adv-x="313" 
d="M297 281l-114 -116v-165c0 -82 -80 -154 -166 -154l1 97c43 0 65 27 65 84v137l112 117l-112 113v95c0 57 -20 84 -61 84l1 89c86 0 160 -68 160 -150v-118z" />
    <glyph glyph-name="asciitilde" unicode="~" horiz-adv-x="567" 
d="M541 353c-53 -141 -94 -193 -154 -193c-49 0 -70 17 -141 90c-20 21 -37 32 -50 32c-33 0 -47 -21 -90 -117h-90c22 74 77 192 180 192c45 0 63 -14 137 -90c20 -21 38 -32 54 -32c19 0 43 39 71 118h83z" />
    <glyph glyph-name="exclamdown" unicode="&#xa1;" horiz-adv-x="171" 
d="M137 437h-104v109h104v-109zM138 -104l-104 1l-1 451h104z" />
    <glyph glyph-name="cent" unicode="&#xa2;" horiz-adv-x="370" 
d="M351 230c0 -78 -60 -142 -138 -149l1 -81h-55l-1 81c-76 8 -133 72 -133 149v182c0 77 57 141 133 149v97l55 1v-97c78 -7 138 -72 138 -150v-53h-100c0 65 -9 97 -38 109v-292c33 11 34 26 38 108h100v-54zM158 180v288c-22 -9 -33 -35 -33 -79v-132
c0 -39 11 -65 33 -77z" />
    <glyph glyph-name="sterling" unicode="&#xa3;" horiz-adv-x="389" 
d="M383 432h-100c0 86 -13 114 -65 114c-40 0 -60 -26 -60 -77v-104h131v-92h-130l1 -179l200 -1l-1 -93h-343v93h40l-1 180h-39v92h39l-1 98c0 94 69 172 153 172c73 0 97 -9 132 -44c29 -29 44 -65 44 -106v-53z" />
    <glyph glyph-name="yen" unicode="&#xa5;" horiz-adv-x="359" 
d="M354 649c-77 -280 -118 -436 -118 -470h83v-52h-83v-48h83v-52h-83v-27h-104v27h-86l-1 52h87l-1 48h-85l-1 52h86c0 19 -21 107 -110 470h104l61 -290l64 290h104z" />
    <glyph glyph-name="brokenbar" unicode="&#xa6;" horiz-adv-x="164" 
d="M123 649l-1 -359h-84l1 360zM124 -160h-84l-2 378h84z" />
    <glyph glyph-name="section" unicode="&#xa7;" horiz-adv-x="385" 
d="M356 75c0 -83 -67 -150 -150 -150c-73 0 -97 9 -132 44c-29 29 -44 65 -44 106v53h100c0 -87 15 -114 65 -114c55 0 61 24 61 155c-50 -19 -52 -19 -78 -19c-75 0 -150 75 -150 150v232c0 83 67 150 150 150c73 0 97 -9 132 -44c29 -29 44 -65 44 -106v-53h-100
c0 86 -16 114 -65 114c-41 0 -62 -31 -62 -93v-62c39 15 41 15 79 19c76 0 150 -74 150 -150v-232zM253 308c0 31 -28 56 -62 56c-41 0 -61 -22 -61 -65c0 -31 28 -56 63 -56c40 0 60 22 60 65z" />
    <glyph glyph-name="dieresis" unicode="&#xa8;" horiz-adv-x="263" 
d="M282 710h-104v111l104 -1v-110zM52 710h-104v111l104 -1v-110z" />
    <glyph glyph-name="copyright" unicode="&#xa9;" horiz-adv-x="601" 
d="M576 309c0 -156 -123 -279 -278 -279c-156 0 -279 123 -279 279c0 154 125 278 279 278s278 -124 278 -278zM527 307c0 127 -102 231 -230 231s-231 -103 -231 -231s102 -230 231 -230c128 0 230 102 230 230zM406 190c0 -60 -43 -96 -113 -96c-54 0 -96 42 -96 96v238
c0 60 43 96 113 96c53 0 96 -43 96 -96v-66h-64c0 79 -3 105 -42 105c-26 0 -39 -18 -39 -54v-206c0 -35 14 -53 42 -53c27 0 40 21 40 63v46h63v-73z" />
    <glyph glyph-name="ordfeminine" unicode="&#xaa;" horiz-adv-x="308" 
d="M275 317h-72v25c-1 -21 -22 -32 -62 -32c-61 0 -114 45 -114 98c0 64 51 113 117 113c24 0 44 -3 59 -10c0 61 -11 80 -47 80c-21 0 -36 -14 -45 -41h-72c0 68 47 109 128 109c59 0 108 -49 108 -109v-233zM203 418c0 25 -24 47 -51 47s-56 -25 -56 -50
c0 -24 27 -43 56 -43c28 0 51 21 51 46z" />
    <glyph glyph-name="guillemotleft" unicode="&#xab;" horiz-adv-x="463" 
d="M437 77c0 -11 -23 -30 -39 -30c-3 0 -7 1 -10 2c-119 163 -178 245 -178 247c0 8 2 10 25 33l153 212c3 1 7 2 10 2c14 0 39 -19 39 -30c0 -8 0 -8 -25 -43l-89 -175l89 -175c25 -35 25 -35 25 -43zM247 77c0 -11 -23 -30 -39 -30c-3 0 -7 1 -10 2
c-119 163 -178 245 -178 247c0 8 2 10 25 33l153 212c3 1 7 2 10 2c14 0 39 -19 39 -30c0 -8 0 -8 -25 -43l-89 -175l89 -175c25 -35 25 -35 25 -43z" />
    <glyph glyph-name="registered" unicode="&#xae;" horiz-adv-x="430" 
d="M406 466c0 -106 -85 -192 -192 -192s-192 85 -192 192s86 192 192 192c105 0 192 -87 192 -192zM363 465c0 83 -67 150 -150 150c-13 0 -26 -2 -38 -5h47c38 0 70 -32 70 -70v-48c0 -20 -8 -36 -23 -47c15 -11 24 -27 27 -49l-1 -57c45 30 68 72 68 126zM239 533
c0 19 -9 29 -26 29h-18v-90h24c13 0 20 10 20 29v32zM245 318h-3v74c0 25 -16 32 -47 32v-106h-13c10 -2 20 -3 31 -3s21 1 32 3zM140 334v262c-51 -29 -77 -72 -77 -131s26 -102 77 -131z" />
    <glyph glyph-name="degree" unicode="&#xb0;" horiz-adv-x="288" 
d="M255 428c0 -65 -45 -104 -120 -104c-57 0 -102 46 -102 104v120c0 65 45 104 119 104c57 0 103 -46 103 -104v-120zM180 446v87c0 34 -12 51 -37 51c-23 0 -35 -17 -35 -51v-87c0 -34 12 -51 37 -51c23 0 35 17 35 51z" />
    <glyph glyph-name="plusminus" unicode="&#xb1;" horiz-adv-x="426" 
d="M410 313h-151v-146h-92v146h-150v92h150v155h92v-155h151v-92zM409 0h-392v92h392v-92z" />
    <glyph glyph-name="twosuperior" unicode="&#xb2;" horiz-adv-x="243" 
d="M213 583c0 -19 -6 -39 -19 -59l-91 -146h103l1 -59h-183v59h4l106 171c8 13 12 24 12 34c0 17 -7 26 -22 26c-24 0 -28 -13 -28 -88h-68v63c0 54 40 87 102 87c44 0 83 -41 83 -88z" />
    <glyph glyph-name="threesuperior" unicode="&#xb3;" horiz-adv-x="251" 
d="M116 314c-74 0 -88 58 -88 123h68c0 -46 7 -61 28 -61c17 0 25 13 25 39c0 53 -2 53 -56 53v67c52 0 55 2 55 39c0 25 -8 37 -25 37c-23 0 -27 -10 -27 -61h-68c0 91 22 123 101 123c56 0 87 -35 87 -115c0 -23 -10 -42 -29 -57c20 -17 30 -35 30 -55
c0 -87 -13 -132 -101 -132z" />
    <glyph glyph-name="acute" unicode="&#xb4;" horiz-adv-x="143" 
d="M153 839l-169 -132h-84l129 133z" />
    <glyph glyph-name="paragraph" unicode="&#xb6;" horiz-adv-x="528" 
d="M491 0h-94l1 574h-44v-574h-94v200h-92c-81 0 -131 54 -131 140v172c0 83 67 150 150 150l304 1v-663zM261 574h-46c-64 0 -78 -16 -78 -85v-122c0 -61 17 -83 61 -83h62z" />
    <glyph glyph-name="middot" unicode="&#xb7;" horiz-adv-x="168" 
d="M137 210h-104v111l104 -1v-110z" />
    <glyph glyph-name="cedilla" unicode="&#xb8;" horiz-adv-x="142" 
d="M152 -126c0 -50 -44 -74 -146 -74v45c13 -4 25 -6 37 -6c36 0 54 11 54 32c0 23 -28 34 -83 34v95h48v-55c49 -6 90 -38 90 -71z" />
    <glyph glyph-name="onesuperior" unicode="&#xb9;" horiz-adv-x="196" 
d="M154 319h-70v259l-53 -53v85l57 54l65 1z" />
    <glyph glyph-name="ordmasculine" unicode="&#xba;" horiz-adv-x="288" 
d="M255 428c0 -65 -45 -104 -120 -104c-57 0 -102 46 -102 104v120c0 65 45 104 119 104c57 0 103 -46 103 -104v-120zM180 446v87c0 34 -12 51 -37 51c-23 0 -35 -17 -35 -51v-87c0 -34 12 -51 37 -51c23 0 35 17 35 51z" />
    <glyph glyph-name="guillemotright" unicode="&#xbb;" horiz-adv-x="464" 
d="M437 296c0 -2 -59 -84 -178 -247c-3 -1 -7 -2 -10 -2c-12 0 -39 17 -39 30c0 8 1 9 25 43l89 175l-89 175c-24 34 -25 36 -25 43c0 11 25 30 39 30c3 0 7 -1 10 -2l153 -212c22 -21 25 -24 25 -33zM247 296c0 -2 -59 -84 -178 -247c-3 -1 -7 -2 -10 -2
c-12 0 -39 17 -39 30c0 8 1 9 25 43l89 175l-89 175c-24 34 -25 36 -25 43c0 11 25 30 39 30c3 0 7 -1 10 -2l153 -212c22 -21 25 -24 25 -33z" />
    <glyph glyph-name="onequarter" unicode="&#xbc;" horiz-adv-x="517" 
d="M489 649l-346 -649h-84l346 650zM147 319h-69l-1 259l-53 -53v85l58 54l64 1zM502 145l-1 -60l-22 1l-1 -86h-65l1 86h-118l-1 53l124 208h76l-119 -202h38l-1 57l65 -1v-56h24z" />
    <glyph glyph-name="onehalf" unicode="&#xbd;" horiz-adv-x="538" 
d="M520 264c0 -19 -6 -39 -18 -59l-91 -146h103v-59h-182v59h4l106 171c8 13 12 24 12 34c0 17 -7 26 -22 26c-19 0 -29 -17 -29 -51l1 -37h-68v62c0 55 40 88 102 88c42 0 82 -43 82 -88zM478 649l-346 -649h-84l347 650zM147 319h-70v259l-53 -53v85l57 54l65 1z" />
    <glyph glyph-name="threequarters" unicode="&#xbe;" horiz-adv-x="521" 
d="M491 649l-346 -649h-84l346 650zM213 382c0 -54 -40 -88 -102 -88c-75 0 -87 59 -87 123h68c0 -48 6 -61 27 -61c17 0 26 13 26 39c0 53 -2 53 -56 53l-1 67c49 0 56 0 56 39c0 25 -8 37 -25 37c-24 0 -26 -14 -28 -61h-68c0 91 24 123 102 123c56 0 87 -35 87 -115
c0 -23 -10 -42 -29 -57c20 -17 30 -35 30 -55v-44zM504 145v-60l-23 1v-86h-66l1 86h-118l-1 53l125 208h75l-119 -202h38v57l65 -1v-56h23z" />
    <glyph glyph-name="questiondown" unicode="&#xbf;" horiz-adv-x="353" 
d="M222 437h-104v109h104v-109zM339 41c0 -83 -67 -150 -150 -150c-73 0 -97 9 -132 44c-29 29 -44 65 -44 106v171c0 66 76 134 148 134h54v-100c-100 0 -100 -1 -102 -182c0 -62 16 -84 61 -84c48 0 65 30 65 114h100v-53z" />
    <glyph glyph-name="Agrave" unicode="&#xc0;" horiz-adv-x="383" 
d="M358 0h-104l-24 148h-76l-25 -148h-104l115 650l107 -1zM214 252l-21 158l-21 -158h42zM271 707h-84l-169 132l124 1z" />
    <glyph glyph-name="Aacute" unicode="&#xc1;" horiz-adv-x="383" 
d="M358 0h-104l-24 148h-76l-25 -148h-104l115 650l107 -1zM214 252l-21 158l-21 -158h42zM376 839l-169 -132h-84l129 133z" />
    <glyph glyph-name="Acircumflex" unicode="&#xc2;" horiz-adv-x="383" 
d="M358 0h-104l-24 148h-76l-25 -148h-104l115 650l107 -1zM214 252l-21 158l-21 -158h42zM348 698h-71l-69 150l-70 -150h-71l105 218l73 -1z" />
    <glyph glyph-name="Atilde" unicode="&#xc3;" horiz-adv-x="383" 
d="M358 0h-104l-24 148h-76l-25 -148h-104l115 650l107 -1zM214 252l-21 158l-21 -158h42zM378 829c-30 -83 -63 -124 -99 -124c-25 0 -49 13 -74 39c-24 26 -40 39 -49 39c-21 0 -28 -9 -58 -75h-58c25 82 64 123 116 123c23 0 47 -13 71 -39s41 -39 52 -39
c13 0 28 25 46 76h53z" />
    <glyph glyph-name="Adieresis" unicode="&#xc4;" horiz-adv-x="374" 
d="M349 0h-104l-24 148h-76l-25 -148h-104l115 650l107 -1zM205 252l-21 158l-21 -158h42zM359 710h-104v111l104 -1v-110zM129 710h-104v111l104 -1v-110z" />
    <glyph glyph-name="Aring" unicode="&#xc5;" horiz-adv-x="383" 
d="M358 0h-104l-24 148h-76l-25 -148h-104l115 650l107 -1zM214 252l-21 158l-21 -158h42zM314 768c0 -65 -45 -104 -119 -104c-58 0 -103 46 -103 104v60c0 72 53 104 120 104c55 0 102 -46 102 -104v-60zM239 786v27c0 34 -12 51 -37 51c-23 0 -35 -17 -35 -51v-27
c0 -34 12 -51 37 -51c23 0 35 17 35 51z" />
    <glyph glyph-name="AE" unicode="&#xc6;" horiz-adv-x="571" 
d="M553 93l-1 -93h-303v148h-75l-50 -148h-104l223 650h309l-1 -93h-197l-1 -176l199 1l-1 -93h-199l1 -195zM248 252v132l-39 -132h39z" />
    <glyph glyph-name="Ccedilla" unicode="&#xc7;" horiz-adv-x="371" 
d="M350 140c0 -82 -64 -147 -146 -150v-45c46 -6 90 -36 90 -71c0 -50 -44 -74 -146 -74v45c13 -4 25 -6 37 -6c36 0 54 11 54 32c0 23 -28 34 -83 34v86c-76 10 -132 72 -132 149v372c0 83 67 150 150 150c73 0 97 -9 132 -44c29 -29 44 -65 44 -106v-103h-99v60
c0 69 -22 104 -66 104c-41 0 -61 -28 -61 -84v-322c0 -56 22 -84 65 -84c41 0 61 28 61 84v87h100v-114z" />
    <glyph glyph-name="Egrave" unicode="&#xc8;" horiz-adv-x="357" 
d="M331 93l-1 -93h-303l-1 649l304 1l-1 -93h-197l-1 -176l199 1l-1 -93h-199l1 -195zM275 707h-84l-169 132l124 1z" />
    <glyph glyph-name="Eacute" unicode="&#xc9;" horiz-adv-x="365" 
d="M330 93l-1 -93h-303l-1 649l304 1l-1 -93h-197l-1 -176l199 1l-1 -93h-199l1 -195zM379 839l-169 -132h-84l129 133z" />
    <glyph glyph-name="Ecircumflex" unicode="&#xca;" horiz-adv-x="364" 
d="M332 93l-1 -93h-303l-1 649l304 1l-1 -93h-197l-1 -176l199 1l-1 -93h-199l1 -195zM313 698h-71l-69 150l-70 -150h-71l105 218l73 -1z" />
    <glyph glyph-name="Edieresis" unicode="&#xcb;" horiz-adv-x="384" 
d="M333 93l-1 -93h-303l-1 649l304 1l-1 -93h-197l-1 -176l199 1l-1 -93h-199l1 -195zM354 710h-104v111l104 -1v-110zM124 710h-104v111l104 -1v-110z" />
    <glyph glyph-name="Igrave" unicode="&#xcc;" horiz-adv-x="190" 
d="M153 0h-104l-1 650l104 -1zM184 707h-84l-169 132l124 1z" />
    <glyph glyph-name="Iacute" unicode="&#xcd;" horiz-adv-x="163" 
d="M127 0h-104l-1 650l104 -1zM263 839l-169 -132h-84l129 133z" />
    <glyph glyph-name="Icircumflex" unicode="&#xce;" horiz-adv-x="221" 
d="M159 0h-104l-1 650l104 -1zM237 698h-71l-69 150l-70 -150h-71l105 218l73 -1z" />
    <glyph glyph-name="Idieresis" unicode="&#xcf;" horiz-adv-x="184" 
d="M149 0h-104l-1 650l104 -1zM247 710h-104v111l104 -1v-110zM17 710h-104v111l104 -1v-110z" />
    <glyph glyph-name="Eth" unicode="&#xd0;" horiz-adv-x="416" 
d="M387 140c0 -85 -51 -140 -131 -140h-196v277h-31v92h31v283h177c83 0 150 -67 150 -150v-362zM287 167v312c0 81 -9 85 -126 85v-195h51v-92h-51v-193h65c44 0 61 22 61 83z" />
    <glyph glyph-name="Ntilde" unicode="&#xd1;" horiz-adv-x="376" 
d="M339 0h-106l-106 354l1 -354h-96l-3 649h104l110 -366l1 366h94zM372 829c-30 -83 -63 -124 -99 -124c-25 0 -49 13 -74 39c-24 26 -40 39 -49 39c-21 0 -28 -9 -58 -75h-58c25 82 64 123 116 123c23 0 47 -13 71 -39s41 -39 52 -39c13 0 28 25 46 76h53z" />
    <glyph glyph-name="Ograve" unicode="&#xd2;" horiz-adv-x="381" 
d="M353 140c0 -82 -68 -150 -150 -150c-73 0 -97 9 -132 44c-29 29 -44 65 -44 106v372c0 83 67 150 150 150c68 0 96 -9 131 -44c30 -29 45 -65 45 -106v-372zM253 167v322c0 62 -15 84 -55 84c-47 0 -71 -28 -71 -84v-322c0 -56 22 -84 65 -84c41 0 61 28 61 84zM262 707
h-84l-169 132l124 1z" />
    <glyph glyph-name="Oacute" unicode="&#xd3;" horiz-adv-x="381" 
d="M353 140c0 -82 -68 -150 -150 -150c-73 0 -97 9 -132 44c-29 29 -44 65 -44 106v372c0 83 67 150 150 150c68 0 96 -9 131 -44c30 -29 45 -65 45 -106v-372zM253 167v322c0 62 -15 84 -55 84c-47 0 -71 -28 -71 -84v-322c0 -56 22 -84 65 -84c41 0 61 28 61 84zM367 839
l-169 -132h-84l129 133z" />
    <glyph glyph-name="Ocircumflex" unicode="&#xd4;" horiz-adv-x="381" 
d="M353 140c0 -82 -68 -150 -150 -150c-73 0 -97 9 -132 44c-29 29 -44 65 -44 106v372c0 83 67 150 150 150c68 0 96 -9 131 -44c30 -29 45 -65 45 -106v-372zM253 167v322c0 62 -15 84 -55 84c-47 0 -71 -28 -71 -84v-322c0 -56 22 -84 65 -84c41 0 61 28 61 84zM339 698
h-71l-69 150l-70 -150h-71l105 218l73 -1z" />
    <glyph glyph-name="Otilde" unicode="&#xd5;" horiz-adv-x="384" 
d="M356 140c0 -82 -68 -150 -150 -150c-73 0 -97 9 -132 44c-29 29 -44 65 -44 106v372c0 83 67 150 150 150c68 0 96 -9 131 -44c30 -29 45 -65 45 -106v-372zM256 167v322c0 62 -15 84 -55 84c-47 0 -71 -28 -71 -84v-322c0 -56 22 -84 65 -84c41 0 61 28 61 84zM372 829
c-30 -83 -63 -124 -99 -124c-25 0 -49 13 -74 39c-24 26 -40 39 -49 39c-21 0 -28 -9 -58 -75h-58c25 82 64 123 116 123c23 0 47 -13 71 -39s41 -39 52 -39c13 0 28 25 46 76h53z" />
    <glyph glyph-name="Odieresis" unicode="&#xd6;" horiz-adv-x="376" 
d="M348 140c0 -82 -68 -150 -150 -150c-73 0 -97 9 -132 44c-29 29 -44 65 -44 106v372c0 83 67 150 150 150c68 0 96 -9 131 -44c30 -29 45 -65 45 -106v-372zM248 167v322c0 62 -15 84 -55 84c-47 0 -71 -28 -71 -84v-322c0 -56 22 -84 65 -84c41 0 61 28 61 84zM354 710
h-104v111l104 -1v-110zM124 710h-104v111l104 -1v-110z" />
    <glyph glyph-name="multiply" unicode="&#xd7;" horiz-adv-x="403" 
d="M382 59l-37 -37l-145 146l-145 -145l-37 37l145 145l-145 144l37 37l144 -143l145 145l37 -37l-144 -147z" />
    <glyph glyph-name="Oslash" unicode="&#xd8;" horiz-adv-x="382" 
d="M361 715l-37 -117c19 -25 28 -54 28 -86v-372c0 -93 -64 -150 -176 -150c-14 0 -27 2 -40 5l-20 -63h-94l36 115c-21 27 -32 58 -32 93v372c0 93 64 150 176 150c16 0 31 -2 46 -7l19 61zM221 569c-7 3 -15 4 -24 4c-47 0 -71 -28 -71 -84v-225zM252 167v200l-87 -279
c7 -3 16 -5 26 -5c41 0 61 28 61 84z" />
    <glyph glyph-name="Ugrave" unicode="&#xd9;" 
d="M356 140c0 -83 -67 -150 -150 -150c-68 0 -96 9 -132 44c-29 29 -44 65 -44 106l-1 516h101v-489c0 -56 22 -84 65 -84c41 0 61 28 61 84v489h99zM267 707h-84l-169 132l124 1z" />
    <glyph glyph-name="Uacute" unicode="&#xda;" 
d="M356 140c0 -83 -67 -150 -150 -150c-68 0 -96 9 -132 44c-29 29 -44 65 -44 106l-1 516h101v-489c0 -56 22 -84 65 -84c41 0 61 28 61 84v489h99zM372 839l-169 -132h-84l129 133z" />
    <glyph glyph-name="Ucircumflex" unicode="&#xdb;" 
d="M356 140c0 -83 -67 -150 -150 -150c-68 0 -96 9 -132 44c-29 29 -44 65 -44 106l-1 516h101v-489c0 -56 22 -84 65 -84c41 0 61 28 61 84v489h99zM344 698h-71l-69 150l-70 -150h-71l105 218l73 -1z" />
    <glyph glyph-name="Udieresis" unicode="&#xdc;" horiz-adv-x="386" 
d="M350 140c0 -83 -67 -150 -150 -150c-68 0 -96 9 -132 44c-29 29 -44 65 -44 106l-1 516h101v-489c0 -56 22 -84 65 -84c41 0 61 28 61 84v489h99zM358 710h-104v111l104 -1v-110zM128 710h-104v111l104 -1v-110z" />
    <glyph glyph-name="Yacute" unicode="&#xdd;" horiz-adv-x="376" 
d="M349 649l-118 -455c-2 -7 -3 -24 -3 -51c0 -36 1 -72 3 -143h-104l-1 192l-110 457h104l61 -290l64 290h104zM366 839l-169 -132h-84l129 133z" />
    <glyph glyph-name="Thorn" unicode="&#xde;" horiz-adv-x="369" 
d="M353 240c0 -90 -55 -140 -131 -140h-92v-100h-104v661h104v-99h73c83 0 150 -67 150 -150v-172zM253 267v122c0 69 -15 85 -79 85h-44v-290h62c44 0 61 22 61 83z" />
    <glyph glyph-name="germandbls" unicode="&#xdf;" horiz-adv-x="383" 
d="M355 140c0 -98 -51 -140 -160 -140l-1 83c41 0 62 28 62 85c0 72 -15 108 -46 109v87c30 6 45 34 45 84c0 114 -2 116 -126 116v-704h-101v791c104 1 163 1 177 1c83 0 150 -67 150 -150v-82c0 -38 -28 -91 -55 -102c33 -14 55 -63 55 -96v-82z" />
    <glyph glyph-name="agrave" unicode="&#xe0;" horiz-adv-x="384" 
d="M358 0h-100v34c-1 -29 -30 -44 -86 -44c-82 0 -157 64 -157 135c0 86 70 157 162 157c33 0 60 -5 81 -14c0 85 -15 111 -65 111c-35 0 -47 -12 -62 -57h-99c0 83 67 150 150 150c73 0 97 -9 132 -44c29 -29 44 -65 44 -106v-322zM258 139c0 34 -34 65 -70 65
c-37 0 -78 -36 -78 -69c0 -31 37 -59 78 -59c38 0 70 29 70 63zM294 543h-84l-169 132l124 1z" />
    <glyph glyph-name="aacute" unicode="&#xe1;" horiz-adv-x="382" 
d="M360 0h-100v34c-1 -29 -30 -44 -86 -44c-82 0 -157 64 -157 135c0 86 70 157 162 157c33 0 60 -5 81 -14c0 85 -15 111 -65 111c-35 0 -47 -12 -62 -57h-99c0 83 67 150 150 150c73 0 97 -9 132 -44c29 -29 44 -65 44 -106v-322zM260 139c0 34 -34 65 -70 65
c-37 0 -78 -36 -78 -69c0 -31 37 -59 78 -59c38 0 70 29 70 63zM361 675l-169 -132h-84l129 133z" />
    <glyph glyph-name="acircumflex" unicode="&#xe2;" horiz-adv-x="381" 
d="M358 0h-100v34c-1 -29 -30 -44 -86 -44c-82 0 -157 64 -157 135c0 86 70 157 162 157c33 0 60 -5 81 -14c0 85 -15 111 -65 111c-35 0 -47 -12 -62 -57h-99c0 83 67 150 150 150c73 0 97 -9 132 -44c29 -29 44 -65 44 -106v-322zM258 139c0 34 -34 65 -70 65
c-37 0 -78 -36 -78 -69c0 -31 37 -59 78 -59c38 0 70 29 70 63zM341 534h-71l-69 150l-70 -150h-71l105 218l73 -1z" />
    <glyph glyph-name="atilde" unicode="&#xe3;" horiz-adv-x="388" 
d="M356 0h-100v34c-1 -29 -30 -44 -86 -44c-82 0 -157 64 -157 135c0 86 70 157 162 157c33 0 60 -5 81 -14c0 85 -15 111 -65 111c-35 0 -47 -12 -62 -57h-99c0 83 67 150 150 150c73 0 97 -9 132 -44c29 -29 44 -65 44 -106v-322zM256 139c0 34 -34 65 -70 65
c-37 0 -78 -36 -78 -69c0 -31 37 -59 78 -59c38 0 70 29 70 63zM369 665c-30 -83 -63 -124 -99 -124c-25 0 -49 13 -74 39c-24 26 -40 39 -49 39c-21 0 -28 -9 -58 -75h-58c25 82 64 123 116 123c23 0 47 -13 71 -39s41 -39 52 -39c13 0 28 25 46 76h53z" />
    <glyph glyph-name="adieresis" unicode="&#xe4;" horiz-adv-x="381" 
d="M350 0h-100v34c-1 -29 -30 -44 -86 -44c-82 0 -157 64 -157 135c0 86 70 157 162 157c33 0 60 -5 81 -14c0 85 -15 111 -65 111c-35 0 -47 -12 -62 -57h-99c0 83 67 150 150 150c73 0 97 -9 132 -44c29 -29 44 -65 44 -106v-322zM250 139c0 34 -34 65 -70 65
c-37 0 -78 -36 -78 -69c0 -31 37 -59 78 -59c38 0 70 29 70 63zM353 546h-104v111l104 -1v-110zM123 546h-104v111l104 -1v-110z" />
    <glyph glyph-name="aring" unicode="&#xe5;" horiz-adv-x="395" 
d="M364 0h-100v34c-1 -29 -30 -44 -86 -44c-82 0 -157 64 -157 135c0 86 70 157 162 157c33 0 60 -5 81 -14c0 85 -15 111 -65 111c-35 0 -47 -12 -62 -57h-99c0 83 67 150 150 150c73 0 97 -9 132 -44c29 -29 44 -65 44 -106v-322zM264 139c0 34 -34 65 -70 65
c-37 0 -78 -36 -78 -69c0 -31 37 -59 78 -59c38 0 70 29 70 63zM305 566c0 -65 -45 -104 -119 -104c-58 0 -103 46 -103 104v60c0 72 53 104 120 104c55 0 102 -46 102 -104v-60zM230 584v27c0 34 -12 51 -37 51c-23 0 -35 -17 -35 -51v-27c0 -34 12 -51 37 -51
c23 0 35 17 35 51z" />
    <glyph glyph-name="ae" unicode="&#xe6;" horiz-adv-x="618" 
d="M589 140c0 -94 -66 -150 -176 -150c-19 0 -37 3 -54 10h-94v34c-1 -29 -30 -44 -86 -44c-82 0 -158 63 -158 135c0 84 67 157 162 157c32 0 59 -4 80 -13v52c0 31 -30 58 -63 58c-37 0 -49 -13 -62 -57h-99c0 93 64 150 176 150c32 0 83 -29 99 -57c12 26 66 57 99 57
c68 0 96 -9 131 -44c30 -29 45 -65 45 -106v-138h-224v-45c0 -38 29 -57 88 -57c17 0 29 19 37 58h99zM489 267c0 87 -12 116 -65 116c-37 0 -60 -21 -60 -53l1 -62zM263 135c0 43 -27 69 -68 69c-37 0 -78 -35 -78 -69c0 -31 37 -59 78 -59c35 0 68 28 68 59z" />
    <glyph glyph-name="ccedilla" unicode="&#xe7;" horiz-adv-x="378" 
d="M351 140c0 -82 -64 -147 -146 -150v-45c46 -6 90 -36 90 -71c0 -50 -44 -74 -146 -74v45c13 -4 25 -6 37 -6c36 0 54 11 54 32c0 23 -28 34 -83 34v86c-76 10 -132 72 -132 149v182c0 83 67 150 150 150c73 0 97 -9 132 -44c29 -29 44 -65 44 -106v-53h-100
c0 87 -15 114 -65 114c-41 0 -61 -28 -61 -84v-132c0 -56 22 -84 65 -84c58 0 61 38 61 111h100v-54z" />
    <glyph glyph-name="egrave" unicode="&#xe8;" horiz-adv-x="360" 
d="M338 140c0 -83 -67 -150 -150 -150c-73 0 -97 9 -132 44c-29 29 -44 65 -44 106v182c0 83 67 150 150 150c73 0 97 -9 132 -44c29 -29 44 -65 44 -106v-138h-226c0 -78 15 -102 90 -102c18 0 30 19 37 58h99zM238 267c0 87 -12 116 -65 116c-48 0 -61 -26 -61 -115z
M285 543h-84l-169 132l124 1z" />
    <glyph glyph-name="eacute" unicode="&#xe9;" horiz-adv-x="362" 
d="M338 140c0 -83 -67 -150 -150 -150c-73 0 -97 9 -132 44c-29 29 -44 65 -44 106v182c0 83 67 150 150 150c73 0 97 -9 132 -44c29 -29 44 -65 44 -106v-138h-226c0 -78 15 -102 90 -102c18 0 30 19 37 58h99zM238 267c0 87 -12 116 -65 116c-48 0 -61 -26 -61 -115z
M360 675l-169 -132h-84l129 133z" />
    <glyph glyph-name="ecircumflex" unicode="&#xea;" horiz-adv-x="363" 
d="M339 140c0 -83 -67 -150 -150 -150c-73 0 -97 9 -132 44c-29 29 -44 65 -44 106v182c0 83 67 150 150 150c73 0 97 -9 132 -44c29 -29 44 -65 44 -106v-138h-226c0 -78 15 -102 90 -102c18 0 30 19 37 58h99zM239 267c0 87 -12 116 -65 116c-48 0 -61 -26 -61 -115z
M343 534h-71l-69 150l-70 -150h-71l105 218l73 -1z" />
    <glyph glyph-name="edieresis" unicode="&#xeb;" horiz-adv-x="375" 
d="M349 140c0 -83 -67 -150 -150 -150c-73 0 -97 9 -132 44c-29 29 -44 65 -44 106v182c0 83 67 150 150 150c73 0 97 -9 132 -44c29 -29 44 -65 44 -106v-138h-226c0 -78 15 -102 90 -102c18 0 30 19 37 58h99zM249 267c0 87 -12 116 -65 116c-48 0 -61 -26 -61 -115z
M363 546h-104v111l104 -1v-110zM133 546h-104v111l104 -1v-110z" />
    <glyph glyph-name="igrave" unicode="&#xec;" horiz-adv-x="169" 
d="M131 0h-104l-1 480h104zM163 543h-84l-169 132l124 1z" />
    <glyph glyph-name="iacute" unicode="&#xed;" horiz-adv-x="172" 
d="M139 0h-104l-1 480h104zM246 675l-169 -132h-84l129 133z" />
    <glyph glyph-name="icircumflex" unicode="&#xee;" horiz-adv-x="181" 
d="M142 0h-104l-1 480h104zM231 534h-71l-69 150l-70 -150h-71l105 218l73 -1z" />
    <glyph glyph-name="idieresis" unicode="&#xef;" horiz-adv-x="189" 
d="M144 0h-104l-1 480h104zM253 546h-104v111l104 -1v-110zM23 546h-104v111l104 -1v-110z" />
    <glyph glyph-name="eth" unicode="&#xf0;" horiz-adv-x="421" 
d="M397 465l-53 -10l2 -315c0 -83 -67 -150 -150 -150c-73 0 -97 9 -132 44c-29 29 -44 65 -44 106v112c0 90 66 150 166 150c26 0 45 -6 58 -18v52l-61 -11l-14 91l58 11c-10 12 -23 16 -44 16l-15 89c85 0 133 -25 161 -86l53 10zM246 167l-1 84h-2c0 46 -15 62 -58 62
s-65 -28 -65 -84v-62c0 -56 20 -84 61 -84c43 0 65 28 65 84z" />
    <glyph glyph-name="ntilde" unicode="&#xf1;" horiz-adv-x="389" 
d="M347 332l-1 -332h-98l-1 309c0 56 -22 84 -65 84c-40 0 -59 -19 -59 -57l1 -336h-105l-1 480l104 -1l-1 -25c15 19 44 28 86 28c81 0 140 -64 140 -150zM366 665c-30 -83 -63 -124 -99 -124c-25 0 -49 13 -74 39c-24 26 -40 39 -49 39c-21 0 -28 -9 -58 -75h-58
c25 82 64 123 116 123c23 0 47 -13 71 -39s41 -39 52 -39c13 0 28 25 46 76h53z" />
    <glyph glyph-name="ograve" unicode="&#xf2;" horiz-adv-x="368" 
d="M343 140c0 -83 -67 -150 -150 -150c-73 0 -97 9 -132 44c-29 29 -44 65 -44 106v182c0 83 67 150 150 150c73 0 97 -9 132 -44c29 -29 44 -65 44 -106v-182zM243 167v132c0 56 -22 84 -65 84c-41 0 -61 -28 -61 -84v-132c0 -56 22 -84 65 -84c41 0 61 28 61 84zM280 543
h-84l-169 132l124 1z" />
    <glyph glyph-name="oacute" unicode="&#xf3;" horiz-adv-x="369" 
d="M342 140c0 -83 -67 -150 -150 -150c-73 0 -97 9 -132 44c-29 29 -44 65 -44 106v182c0 83 67 150 150 150c73 0 97 -9 132 -44c29 -29 44 -65 44 -106v-182zM242 167v132c0 56 -22 84 -65 84c-41 0 -61 -28 -61 -84v-132c0 -56 22 -84 65 -84c41 0 61 28 61 84zM364 675
l-169 -132h-84l129 133z" />
    <glyph glyph-name="ocircumflex" unicode="&#xf4;" horiz-adv-x="366" 
d="M343 140c0 -83 -67 -150 -150 -150c-73 0 -97 9 -132 44c-29 29 -44 65 -44 106v182c0 83 67 150 150 150c73 0 97 -9 132 -44c29 -29 44 -65 44 -106v-182zM243 167v132c0 56 -22 84 -65 84c-41 0 -61 -28 -61 -84v-132c0 -56 22 -84 65 -84c41 0 61 28 61 84zM337 534
h-71l-69 150l-70 -150h-71l105 218l73 -1z" />
    <glyph glyph-name="otilde" unicode="&#xf5;" horiz-adv-x="384" 
d="M344 140c0 -83 -67 -150 -150 -150c-73 0 -97 9 -132 44c-29 29 -44 65 -44 106v182c0 83 67 150 150 150c73 0 97 -9 132 -44c29 -29 44 -65 44 -106v-182zM244 167v132c0 56 -22 84 -65 84c-41 0 -61 -28 -61 -84v-132c0 -56 22 -84 65 -84c41 0 61 28 61 84zM368 665
c-30 -83 -63 -124 -99 -124c-25 0 -49 13 -74 39c-24 26 -40 39 -49 39c-21 0 -28 -9 -58 -75h-58c25 82 64 123 116 123c23 0 47 -13 71 -39s41 -39 52 -39c13 0 28 25 46 76h53z" />
    <glyph glyph-name="odieresis" unicode="&#xf6;" horiz-adv-x="378" 
d="M340 140c0 -83 -67 -150 -150 -150c-73 0 -97 9 -132 44c-29 29 -44 65 -44 106v182c0 83 67 150 150 150c73 0 97 -9 132 -44c29 -29 44 -65 44 -106v-182zM240 167v132c0 56 -22 84 -65 84c-41 0 -61 -28 -61 -84v-132c0 -56 22 -84 65 -84c41 0 61 28 61 84zM354 546
h-104v111l104 -1v-110zM124 546h-104v111l104 -1v-110z" />
    <glyph glyph-name="divide" unicode="&#xf7;" horiz-adv-x="399" 
d="M259 390h-104v111l104 -1v-110zM401 210h-392v82h392v-82zM259 0h-104v111l104 -1v-110z" />
    <glyph glyph-name="oslash" unicode="&#xf8;" horiz-adv-x="382" 
d="M352 140c0 -89 -67 -150 -166 -150h-29l-21 -58h-94l34 97c-33 29 -50 66 -50 111v182c0 93 64 149 176 149h28l29 82l93 -1l-43 -125c29 -29 43 -64 43 -105v-182zM199 382c-54 0 -73 -18 -73 -83v-126zM252 167v98l-63 -182c48 0 63 20 63 84z" />
    <glyph glyph-name="ugrave" unicode="&#xf9;" horiz-adv-x="379" 
d="M353 -1l-104 1l1 25c-15 -19 -44 -28 -86 -28c-81 0 -140 64 -140 150l1 332h98l1 -309c0 -56 22 -84 65 -84c39 0 59 19 59 57l-1 336h105zM281 543h-84l-169 132l124 1z" />
    <glyph glyph-name="uacute" unicode="&#xfa;" horiz-adv-x="372" 
d="M344 -1l-104 1l1 25c-15 -19 -44 -28 -86 -28c-81 0 -140 64 -140 150l1 332h98l1 -309c0 -56 22 -84 65 -84c39 0 59 19 59 57l-1 336h105zM347 675l-169 -132h-84l129 133z" />
    <glyph glyph-name="ucircumflex" unicode="&#xfb;" horiz-adv-x="382" 
d="M353 -1l-104 1l1 25c-15 -19 -44 -28 -86 -28c-81 0 -140 64 -140 150l1 332h98l1 -309c0 -56 22 -84 65 -84c39 0 59 19 59 57l-1 336h105zM338 534h-71l-69 150l-70 -150h-71l105 218l73 -1z" />
    <glyph glyph-name="udieresis" unicode="&#xfc;" horiz-adv-x="391" 
d="M361 -1l-104 1l1 25c-15 -19 -44 -28 -86 -28c-81 0 -140 64 -140 150l1 332h98l1 -309c0 -56 22 -84 65 -84c39 0 59 19 59 57l-1 336h105zM356 546h-104v111l104 -1v-110zM126 546h-104v111l104 -1v-110z" />
    <glyph glyph-name="yacute" unicode="&#xfd;" horiz-adv-x="376" 
d="M349 479l-158 -679l-87 1l41 199l-129 479h104l70 -324l55 324h104zM386 675l-169 -132h-84l129 133z" />
    <glyph glyph-name="thorn" unicode="&#xfe;" horiz-adv-x="378" 
d="M354 144c0 -93 -64 -150 -176 -150c-18 0 -35 9 -50 28l1 -205l-104 -1v836l99 1l1 -212c15 23 41 35 79 35c83 0 150 -67 150 -150v-182zM254 167v132c0 56 -20 84 -61 84c-61 0 -65 -26 -65 -166c0 -104 8 -134 61 -134c43 0 65 28 65 84z" />
    <glyph glyph-name="ydieresis" unicode="&#xff;" horiz-adv-x="378" 
d="M345 479l-158 -679l-87 1l41 199l-129 479h104l70 -324l55 324h104zM354 546h-104v111l104 -1v-110zM124 546h-104v111l104 -1v-110z" />
    <glyph glyph-name="Scaron" unicode="&#x160;" horiz-adv-x="375" 
d="M354 469h-100c0 76 -17 104 -65 104c-44 0 -61 -23 -61 -86c0 -90 17 -124 65 -124c83 0 160 -65 160 -149v-82c0 -83 -67 -150 -150 -150c-73 0 -97 9 -132 44c-29 29 -44 65 -44 106v43h100c0 -69 21 -104 65 -104c45 0 61 24 61 90c0 73 -21 110 -64 110
c-88 0 -161 68 -161 149v92c0 83 67 150 150 150c73 0 97 -9 132 -44c29 -29 44 -65 44 -106v-43zM310 912l-103 -217l-73 -1l-105 218h71l70 -150l69 150h71z" />
    <glyph glyph-name="scaron" unicode="&#x161;" horiz-adv-x="353" 
d="M337 137c0 -83 -67 -150 -150 -150c-64 0 -89 6 -125 37c-28 25 -45 56 -50 93h105c9 -27 29 -41 59 -41c33 0 61 25 61 56c0 36 -25 54 -75 54c-90 0 -153 56 -153 136c0 83 67 150 150 150c64 0 89 -6 125 -38c29 -25 45 -56 50 -93h-105c-9 28 -28 42 -59 42
c-34 0 -61 -24 -61 -56c0 -36 25 -54 75 -54c90 0 153 -56 153 -136zM299 748l-103 -217l-73 -1l-105 218h71l70 -150l69 150h71z" />
    <glyph glyph-name="Ydieresis" unicode="&#x178;" horiz-adv-x="354" 
d="M343 649l-118 -455c-2 -7 -3 -24 -3 -51c0 -36 1 -72 3 -143h-104l-1 192l-110 457h104l61 -290l64 290h104zM352 710h-104v111l104 -1v-110zM122 710h-104v111l104 -1v-110z" />
    <glyph glyph-name="Zcaron" unicode="&#x17d;" horiz-adv-x="349" 
d="M326 0h-305l-1 83l204 484h-203l-1 83h305l1 -83l-203 -484h202zM325 912l-103 -217l-73 -1l-105 218h71l70 -150l69 150h71z" />
    <glyph glyph-name="zcaron" unicode="&#x17e;" horiz-adv-x="357" 
d="M337 0h-305l-1 83l194 314h-193l-1 83h305l1 -83l-193 -314h192zM308 748l-103 -217l-73 -1l-105 218h71l70 -150l69 150h71z" />
    <glyph glyph-name="florin" unicode="&#x192;" horiz-adv-x="462" 
d="M459 664l-27 -98c-48 0 -81 -36 -100 -109h72l-24 -88h-72l-75 -279c-20 -82 -29 -103 -92 -151c-51 -39 -81 -49 -133 -49l27 98c54 0 79 26 100 102l74 278h-51l25 89h49l15 55c21 80 122 152 212 152z" />
    <glyph glyph-name="circumflex" unicode="&#x2c6;" horiz-adv-x="231" 
d="M248 698h-71l-69 150l-70 -150h-71l105 218l73 -1z" />
    <glyph glyph-name="macron" unicode="&#xaf;" horiz-adv-x="210" 
d="M225 713h-203v72h203v-72z" />
    <glyph glyph-name="tilde" unicode="&#x2dc;" horiz-adv-x="279" 
d="M299 829c-30 -83 -63 -124 -99 -124c-25 0 -49 13 -74 39c-24 26 -40 39 -49 39c-21 0 -28 -9 -58 -75h-58c25 82 64 123 116 123c23 0 47 -13 71 -39s41 -39 52 -39c13 0 28 25 46 76h53z" />
    <glyph glyph-name="endash" unicode="&#x2013;" horiz-adv-x="379" 
d="M343 300l-311 1v62l311 -1v-62z" />
    <glyph glyph-name="emdash" unicode="&#x2014;" horiz-adv-x="552" 
d="M517 299h-485v52h485v-52z" />
    <glyph glyph-name="quoteleft" unicode="&#x2018;" horiz-adv-x="198" 
d="M170 649l-80 -260h-74l40 261z" />
    <glyph glyph-name="quoteright" unicode="&#x2019;" horiz-adv-x="199" 
d="M171 649l-80 -260h-74l40 261z" />
    <glyph glyph-name="quotesinglbase" unicode="&#x201a;" horiz-adv-x="213" 
d="M180 110l-80 -260h-74l40 261z" />
    <glyph glyph-name="quotedblleft" unicode="&#x201c;" horiz-adv-x="339" 
d="M311 649l-79 -260h-74l39 261zM171 649l-79 -260h-74l39 261z" />
    <glyph glyph-name="quotedblright" unicode="&#x201d;" horiz-adv-x="339" 
d="M311 649l-79 -260h-74l39 261zM171 649l-79 -260h-74l39 261z" />
    <glyph glyph-name="quotedblbase" unicode="&#x201e;" horiz-adv-x="347" 
d="M314 110l-80 -260h-74l40 261zM174 110l-80 -260h-74l40 261z" />
    <glyph glyph-name="dagger" unicode="&#x2020;" horiz-adv-x="303" 
d="M283 493h-103l1 -296l-70 1v295h-89l-1 59h90l-1 118h70v-119h103v-58z" />
    <glyph glyph-name="daggerdbl" unicode="&#x2021;" horiz-adv-x="309" 
d="M285 493h-102v-120h99l1 -59h-100l1 -118h-70l-1 119h-92v58h93v120h-90l-1 59h91l-2 118l71 -2v-117h102v-58z" />
    <glyph glyph-name="bullet" unicode="&#x2022;" horiz-adv-x="345" 
d="M309 121h-270v288l269 -3z" />
    <glyph glyph-name="ellipsis" unicode="&#x2026;" horiz-adv-x="601" 
d="M560 0h-104l-1 111l104 -1zM352 0h-104l-1 111l104 -1zM138 0h-104v111l104 -1v-110z" />
    <glyph glyph-name="perthousand" unicode="&#x2030;" horiz-adv-x="812" 
d="M814 104c0 -65 -45 -104 -120 -104c-57 0 -103 47 -103 104v121c0 63 47 104 120 104c56 0 103 -48 103 -104v-121zM739 122v87c0 34 -13 51 -38 51c-23 0 -35 -17 -35 -51v-87c0 -34 13 -51 38 -51c23 0 35 17 35 51zM232 428c0 -65 -45 -104 -119 -104
c-58 0 -103 46 -103 104v120c0 72 53 104 120 104c55 0 102 -46 102 -104v-120zM157 446v87c0 34 -12 51 -37 51c-23 0 -35 -17 -35 -51v-87c0 -34 12 -51 37 -51c23 0 35 17 35 51zM551 104c0 -65 -45 -104 -120 -104c-57 0 -103 47 -103 104v121c0 63 47 104 120 104
c56 0 103 -48 103 -104v-121zM476 122v87c0 34 -13 51 -38 51c-23 0 -35 -17 -35 -51v-87c0 -34 13 -51 38 -51c23 0 35 17 35 51zM494 649l-346 -649h-94l346 650z" />
    <glyph glyph-name="guilsinglleft" unicode="&#x2039;" horiz-adv-x="275" 
d="M248 77c0 -11 -23 -30 -39 -30c-3 0 -7 1 -10 2c-119 163 -178 245 -178 247c0 8 2 10 25 33l153 212c3 1 7 2 10 2c14 0 39 -19 39 -30c0 -10 -2 -12 -25 -43l-89 -175l89 -175c23 -31 25 -33 25 -43z" />
    <glyph glyph-name="guilsinglright" unicode="&#x203a;" horiz-adv-x="276" 
d="M249 296c0 -2 -59 -84 -178 -247c-3 -1 -7 -2 -10 -2c-15 0 -39 17 -39 30c0 8 0 8 25 43l89 175l-89 175c-25 35 -25 35 -25 43c0 11 25 30 39 30c3 0 7 -1 10 -2l153 -212c23 -23 25 -25 25 -33z" />
    <glyph glyph-name="trademark" unicode="&#x2122;" horiz-adv-x="541" 
d="M506 279h-67v150l-41 -150h-65l-37 150v-150h-67v366h70l69 -240l66 240h72v-366zM203 591h-56l1 -312h-68v312h-55v55h178v-55z" />
    <glyph glyph-name="euro" unicode="&#x20ac;" horiz-adv-x="417" 
d="M392 140c0 -83 -67 -150 -150 -150c-73 0 -97 9 -132 44c-29 29 -44 65 -44 106v47h-37l-1 92h38v58h-41l-1 92h42v83c0 83 67 150 150 150c73 0 97 -9 132 -44c29 -29 44 -65 44 -106v-103h-99v60c0 69 -22 104 -66 104c-59 0 -61 -36 -61 -144h82v-92h-82v-58h46v-92
h-46c0 -75 15 -104 65 -104c41 0 61 28 61 84v87h100v-114z" />
  </font>
</defs>
</svg>
